<?xml version="1.0" standalone="no"?><!DOCTYPE svg PUBLIC "-//W3C//DTD SVG 1.1//EN" "http://www.w3.org/Graphics/SVG/1.1/DTD/svg11.dtd"><svg t="1527755780596" class="icon" style="" viewBox="0 0 1024 1024" version="1.1" xmlns="http://www.w3.org/2000/svg" p-id="40097" xmlns:xlink="http://www.w3.org/1999/xlink" width="50" height="50"><defs><style type="text/css"></style></defs><path d="M495 173.22c-196.492 0-355.782 159.288-355.782 355.78 0 196.494 159.29 355.782 355.782 355.782S850.782 725.494 850.782 529C850.782 332.508 691.492 173.22 495 173.22zM516 718.796 516 776l-32 0 0-56.17c-38-3.626-74.768-21.748-99.626-44.536l21.91-32.108c24.34 20.714 53.68 37.802 88.894 37.802 42.982 0 65.162-23.302 65.162-59.552 0-94.25-161.42-73.536-161.42-186.428 0-51.786 35.082-88.554 85.082-95.804L484.002 282l32 0 0 56.168c38 4.142 61.482 21.75 82.198 43.5l-25.19 27.964c-21.23-20.714-38.746-32.624-70.334-32.624-35.73 0-58.47 22.266-58.47 55.928 0 84.41 161.74 61.106 161.74 185.392C605.944 673.224 572 711.028 516 718.796z" p-id="40098" fill="#ffffff"></path><path d="M932.27 448c4.868 26 7.458 53.362 7.458 81.106 0 245.618-199.112 444.674-444.726 444.674S50.274 774.644 50.274 529.028c0-245.616 199.112-444.74 444.726-444.74 54.156 0 106.034 9.708 154.032 27.432l38.752-38.756c-59.252-25.08-124.396-38.96-192.784-38.96C221.62 34.002 0 255.62 0 529 0 802.382 221.62 1024 495 1024S990 802.488 990 529.106c0-27.662-2.278-55.106-6.644-81.106L932.27 448z" p-id="40099" fill="#ffffff"></path><path d="M1024 114 910 114 910 0 860 0 860 114 746 114 746 164 860 164 860 278 910 278 910 164 1024 164Z" p-id="40100" fill="#ffffff"></path></svg>