<?xml version="1.0" standalone="no"?><!DOCTYPE svg PUBLIC "-//W3C//DTD SVG 1.1//EN" "http://www.w3.org/Graphics/SVG/1.1/DTD/svg11.dtd"><svg t="1527756575019" class="icon" style="" viewBox="0 0 1024 1024" version="1.1" xmlns="http://www.w3.org/2000/svg" p-id="63322" xmlns:xlink="http://www.w3.org/1999/xlink" width="50" height="50"><defs><style type="text/css"></style></defs><path d="M342.569597 200.154376H688.775738S825.976975 79.714954 763.902868 27.033244c-11.909077-10.138972-26.647914-14.20901-42.964193-14.20901-67.203801 0-161.934548 68.913698-202.659015 68.913698-0.891074 0-1.746022 0-2.58893-0.060208-0.854949 0.060208-1.697856 0.060208-2.637096 0.060208-40.724468 0-135.407049-68.913698-202.659015-68.913698-16.32832 0-31.00695 4.070038-42.928068 14.20901-62.050024 52.681711 75.103047 173.121133 75.103046 173.121132z m279.604417-89.89005c28.249438-13.173438 65.794941-30.802244 90.600501-34.402663-8.778278 16.713649-27.563071 40.676301-48.563506 61.845319h-107.554981c20.422441-6.213431 42.024953-16.352403 65.517986-27.442656z m-212.966568 0c23.505074 11.090253 45.095544 21.229224 65.505944 27.442656h-107.591105c-21.000435-21.169017-39.749103-45.131669-48.527381-61.845319 24.817601 3.600419 62.41127 21.229224 90.612542 34.402663zM688.775738 325.049166H342.569597C188.859417 437.854255 81.280354 676.999118 81.280354 828.818777c0 168.304519 132.143793 183.139689 312.911299 183.139689 38.605158 0 79.329625-0.686367 121.499077-0.686367 42.121286 0 82.905961 0.686367 121.450911 0.686367 180.851797 0 312.959466-14.762921 312.959466-183.139689 0-151.819659-107.579064-390.964522-261.325369-503.769611z m-51.634097 624.473947c-18.664378 0-37.882666-0.168581-57.522407-0.288997a6130.826562 6130.826562 0 0 0-63.928504-0.385329c-21.722927 0-43.09665 0.180623-63.976669 0.385329-19.639742 0.132457-38.821905 0.288997-57.522408 0.288997-214.568092 0-250.849234-30.115876-250.849234-120.692294 0-127.56801 89.685344-334.959348 220.299863-441.322217h304.04873C798.353697 493.859429 888.039041 701.250767 888.039041 828.818777c0 90.588459-36.232975 120.704336-250.8974 120.704336z m-276.594033-718.145039c-17.171227 0-31.055116 13.956138-31.055116 31.223697s13.871847 31.223697 31.055116 31.223697H670.833853c17.135103 0 31.055116-13.956138 31.055116-31.223697s-13.920013-31.223697-31.055116-31.223697H360.547608zM533.765072 436.023942c-4.455368-7.911288-8.248451-11.860911-11.294958-11.860911-1.697856 0-5.88831 4.732323-12.55932 14.184927a1014.402897 1014.402897 0 0 1-83.351498 107.62723c-7.887205 8.067828-11.836828 13.920013-11.836827 17.568598 0 3.227131 1.228236 6.105058 3.600418 8.47724 2.420348 2.420348 5.382566 3.660626 8.995026 3.660626 3.227131 0 6.743259-1.830313 10.524301-5.442773l68.985947-65.578194v382.740155c0 12.234198 4.961112 18.315173 14.895378 18.315173 9.910182 0 14.83517-6.093016 14.835169-18.315173V504.419854l67.203801 65.07245c4.106163 3.937582 8.055786 5.924435 11.788662 5.924434 3.419796 0 6.442221-1.131904 8.982984-3.383671 2.757511-2.540764 4.118205-5.695646 4.118205-9.284022 0-3.443879-3.853291-9.284023-11.53579-17.532474-31.464528-35.462317-59.256388-71.851833-83.351498-109.192629z" p-id="63323" fill="#ffffff"></path></svg>